PathFileType	4	(X/Y/Z)	C:/Users/opensim2020/Desktop/walking_exp_matlab/subject06_walking20_straight_04.trc	
DataRate	CameraRate	NumFrames	NumMarkers	Units	OrigDataRate	OrigDataStartFrame	OrigNumFrames	
100.00	100.00	8	43	mm	100.00	2221	126	
Frame#	Time	LFHD			RFHD			LBHD			RBHD			C7			T10			CLAV			STRN			RBAK			LSHO			LUPA			LELB			LFRM			LWRA			LWRB			LFIN			RSHO			RUPA			RELB			RFRM			RWRA			RWRB			RFIN			LASI			RASI			LPSI			RPSI			LTHI			LKNE			LTIB			LANK			LHEE			LTOE			RTHI			RKNE			RTIB			RANK			RHEE			RTOE			*39			*40			*41			*42			
		X1	Y1	Z1	X2	Y2	Z2	X3	Y3	Z3	X4	Y4	Z4	X5	Y5	Z5	X6	Y6	Z6	X7	Y7	Z7	X8	Y8	Z8	X9	Y9	Z9	X10	Y10	Z10	X11	Y11	Z11	X12	Y12	Z12	X13	Y13	Z13	X14	Y14	Z14	X15	Y15	Z15	X16	Y16	Z16	X17	Y17	Z17	X18	Y18	Z18	X19	Y19	Z19	X20	Y20	Z20	X21	Y21	Z21	X22	Y22	Z22	X23	Y23	Z23	X24	Y24	Z24	X25	Y25	Z25	X26	Y26	Z26	X27	Y27	Z27	X28	Y28	Z28	X29	Y29	Z29	X30	Y30	Z30	X31	Y31	Z31	X32	Y32	Z32	X33	Y33	Z33	X34	Y34	Z34	X35	Y35	Z35	X36	Y36	Z36	X37	Y37	Z37	X38	Y38	Z38	X39	Y39	Z39	X40	Y40	Z40	X41	Y41	Z41	X42	Y42	Z42	X43	Y43	Z43	

64	0.630	1518.69385	251.26256	1640.08691	1387.29614	258.08813	1625.53247	1526.06836	386.27249	1590.00024	1397.29309	391.35632	1581.27002	1466.76538	392.91507	1426.62866	1446.86255	423.32666	1096.16943	1465.95325	280.07516	1351.54004	1466.37317	238.12671	1177.41431	1377.36536	461.14255	1256.60278	1627.72119	339.04807	1378.96545	1696.34521	398.87701	1188.99890	1701.50854	445.44904	1085.10083	1720.79785	481.99518	939.64783	1668.68713	484.03659	811.12598	1717.66650	531.67242	831.64276	1703.28333	542.74109	740.76312	1305.18958	325.98447	1387.58862	1201.06433	359.91071	1199.79419	1179.23889	339.95248	1084.39197	1168.45813	267.53693	993.80792	1219.27087	145.06625	921.67963	1175.26599	182.62119	888.01880	1179.57129	106.89907	855.68756	1554.58313	232.18616	952.09363	1336.98193	248.76357	939.54010	1534.60083	395.92520	968.36896	1367.22876	397.62234	959.05469	1623.20471	216.64081	650.20599	1591.27026	161.15181	499.04910	1589.69250	162.08238	239.41946	1548.25830	162.08389	69.16772	1505.02808	205.28448	55.66874	1536.68591	20.34117	43.29250	1281.51428	308.20084	595.70874	1293.68994	303.45059	468.56815	1318.69482	507.12097	316.13342	1374.13770	659.21234	222.51929	1425.18994	682.06818	248.26691	1369.53845	657.46045	63.53976	1462.84631	353.08011	1679.85645									 
65	0.640	1519.42139	235.65662	1642.11560	1387.92151	242.97966	1627.68018	1526.99072	370.71533	1591.63318	1398.11951	376.11771	1583.07983	1467.76404	377.18439	1428.53394	1447.76807	407.50064	1097.97180	1466.21448	264.43436	1353.32874	1466.62708	222.60629	1178.92603	1378.80774	446.01785	1258.30969	1628.52905	322.25677	1380.61084	1697.88818	379.24567	1189.53638	1703.72729	424.67618	1085.24646	1723.18481	459.25589	939.32776	1670.28015	460.83826	810.96454	1720.50928	507.47516	830.81061	1705.76953	517.78534	739.75214	1305.51782	311.15128	1388.90674	1202.63293	347.18924	1200.37415	1180.92200	328.45609	1084.56396	1169.97144	258.53796	991.56036	1219.85486	137.99541	915.43872	1176.01111	176.90573	883.08301	1179.82922	102.32979	848.25604	1555.44312	216.85587	953.64307	1337.39001	233.02654	940.60907	1534.97595	380.43784	970.06335	1367.40369	382.10989	959.72925	1623.03296	204.78169	649.77618	1591.08972	150.10245	498.45160	1588.44556	156.83131	239.10657	1547.85620	161.50568	69.40249	1504.58691	205.07141	56.01883	1536.38599	19.76218	42.78918	1282.12366	285.15909	596.65802	1293.88794	275.79208	470.25238	1317.26282	476.92648	316.81509	1372.93787	631.52576	226.72618	1423.68347	654.89154	253.25459	1370.56726	631.02429	67.97672	1463.76807	337.94019	1681.62451									 
66	0.650	1519.71814	220.39479	1644.18433	1388.30127	227.81465	1629.96509	1527.63611	355.23642	1593.62854	1398.83521	360.80133	1585.17737	1468.61316	361.35168	1431.04150	1448.86865	391.95764	1100.09912	1466.37366	248.84930	1355.41492	1466.86340	207.16025	1180.74841	1380.21570	431.07635	1260.57239	1629.13257	305.63391	1382.45251	1699.22449	359.42224	1190.16272	1705.69580	403.48279	1085.33594	1725.12744	435.79205	938.85773	1671.97302	436.62906	810.80267	1723.27124	482.43423	829.81830	1708.58826	491.46515	738.61127	1305.69617	296.34836	1390.49097	1203.77649	333.94455	1201.32483	1182.52002	316.96567	1084.86182	1171.37952	249.90285	989.32269	1220.35876	131.55533	908.91217	1176.74463	171.97473	877.94580	1180.12256	98.54768	840.39569	1556.14746	201.82265	955.25726	1337.61414	217.57013	942.28168	1535.58630	365.19714	971.95276	1367.83228	366.96072	960.98645	1622.71277	192.98309	649.52386	1590.83240	139.57994	497.83734	1587.91846	153.21892	239.28767	1547.44751	161.39064	69.62210	1504.27185	204.79657	55.98580	1536.22510	19.47237	42.45374	1282.92834	262.17987	598.64667	1294.38525	248.53394	472.80179	1315.94897	447.77792	317.74246	1372.19238	603.95752	229.95804	1421.72290	630.14001	255.76897	1370.98962	595.94550	71.34817	1464.48914	322.66171	1683.75098									 
67	0.660	1519.93054	204.89954	1646.48877	1388.53699	212.59570	1632.37952	1528.15417	339.64618	1595.84326	1399.34937	346.17636	1587.35632	1469.24902	345.59784	1433.75354	1449.94519	376.72314	1102.53076	1466.46667	233.68179	1357.58228	1467.10657	192.06996	1182.87341	1381.55359	416.29962	1263.14404	1629.61377	289.33826	1384.60315	1700.22644	339.66696	1191.03601	1707.52051	381.92950	1085.57202	1727.16846	411.52103	938.60309	1673.58740	411.36847	810.80573	1726.07068	456.50488	828.86859	1712.05249	463.63617	737.60339	1305.78735	281.52203	1392.32422	1204.95203	321.06476	1202.74854	1183.98865	305.53870	1085.40161	1172.83386	241.49809	987.20538	1220.81641	125.84511	902.18060	1177.39270	167.86952	872.85852	1180.21460	96.18258	832.43115	1556.74133	187.10701	956.98651	1337.91650	202.49280	944.53192	1536.32861	350.18970	973.97473	1368.49976	352.02191	962.87701	1622.44580	181.40396	649.74103	1590.72839	130.15291	497.37152	1588.05090	150.56610	239.81645	1547.17725	161.34810	69.87859	1504.11060	204.91255	56.09836	1536.13123	19.37761	42.26443	1283.65857	239.65634	601.32574	1295.08887	221.72362	476.09592	1315.86511	419.56647	320.18839	1371.45117	574.96881	231.50249	1419.89673	604.83618	255.54283	1371.67712	557.21210	73.38563	1464.99731	307.31247	1686.03015									 
68	0.670	1519.99341	189.38258	1648.94324	1388.58496	197.38869	1634.83997	1528.55798	324.14023	1598.24390	1399.66089	330.91357	1589.76929	1469.91724	330.19296	1436.38025	1451.01648	361.70319	1105.18738	1466.55701	218.43086	1359.98999	1467.38318	177.10732	1185.19299	1382.92773	401.57379	1265.82629	1630.00061	273.22827	1387.07373	1701.20044	319.59976	1192.12097	1709.11426	360.02292	1086.06726	1729.10315	386.63477	938.58276	1675.32715	385.72305	810.84076	1728.78796	429.62106	828.11090	1715.66138	434.59488	736.87292	1306.02905	266.80157	1394.40784	1206.37024	308.00955	1204.51990	1185.70776	293.89282	1086.35266	1174.33459	233.35095	985.33026	1221.07495	120.64255	895.47827	1178.05347	165.03902	867.74237	1180.33643	94.54624	824.47693	1557.26611	172.61778	958.81122	1338.26709	187.40950	947.44452	1537.09326	335.25098	976.29211	1369.35999	337.09637	965.27753	1622.47424	170.44438	650.54138	1590.80664	121.92406	496.98846	1587.96387	148.69125	240.38220	1546.84033	161.05038	70.11030	1503.84314	205.18907	56.40131	1536.08582	19.25205	42.11513	1284.62720	217.38390	604.77472	1296.07043	195.46358	480.19852	1316.41199	391.16431	323.62775	1370.68225	544.28033	230.62634	1418.70471	577.17188	252.92523	1371.29089	517.29089	74.37514	1465.26038	291.99173	1688.45544									 
69	0.680	1519.74829	173.92429	1651.42126	1388.48694	182.11687	1637.32593	1528.71143	308.57855	1600.79895	1399.82117	315.77472	1592.27234	1470.30933	314.99979	1438.90405	1452.07190	346.86707	1107.90588	1466.52429	204.58479	1362.05688	1467.72327	162.23868	1187.69397	1384.31421	386.98047	1268.52136	1630.24402	257.46393	1389.75952	1701.98340	299.71664	1193.55994	1710.57300	337.89587	1086.81555	1730.78784	361.11395	938.80658	1677.44495	357.97549	811.31287	1731.38123	401.82446	827.54077	1718.61096	404.80777	736.14471	1306.35303	252.23607	1396.70007	1207.70630	295.10080	1206.64197	1187.65662	282.08951	1087.51221	1175.90503	225.37500	983.73688	1221.33679	116.15363	888.75983	1178.53442	162.04381	863.05219	1180.41199	93.90316	816.51782	1557.77478	158.16747	960.83453	1338.63489	172.25758	950.83228	1537.98193	320.38477	978.50867	1370.37292	322.14868	968.10632	1622.13245	160.19035	651.43054	1590.93372	114.60663	496.61902	1588.34998	146.28342	240.74475	1546.54016	160.87402	70.31809	1503.60559	205.18004	56.65377	1536.01038	19.13688	41.94736	1285.56958	195.49773	608.76923	1297.28149	169.43469	484.93304	1317.53955	360.94769	324.71146	1370.29321	512.80261	227.64481	1418.28467	547.83112	248.39857	1370.26941	477.25565	74.09687	1465.36279	276.64111	1690.96265									 
70	0.690	1519.42322	158.35977	1653.91357	1388.16296	166.93507	1639.65186	1528.80762	293.08423	1603.48962	1399.85742	300.53342	1594.89624	1470.70166	299.97089	1441.43738	1453.14258	332.12717	1110.65405	1466.62927	189.63728	1364.60278	1468.09119	147.47626	1190.32910	1385.61133	372.36426	1271.23914	1630.45972	241.85434	1392.65381	1702.59253	280.04788	1195.35339	1711.91284	315.53555	1087.85962	1732.40991	335.05862	939.37866	1678.87854	330.27127	811.93964	1733.81848	373.20566	827.26245	1721.84863	373.59784	735.84247	1306.67395	237.84875	1399.07373	1209.06128	282.28708	1208.85339	1189.72437	270.17822	1088.90710	1177.39832	217.61462	982.42163	1221.74927	112.84825	882.03070	1179.09106	159.69763	858.84747	1180.46033	94.20890	808.81879	1558.45068	143.74559	962.90161	1339.23511	157.16614	954.39056	1538.76917	305.61145	980.78290	1371.39917	307.09280	971.13605	1621.87708	150.26109	652.30347	1590.97681	107.83967	496.24615	1588.22974	144.20201	240.59622	1546.20996	161.05830	70.51038	1503.19226	205.02185	56.74055	1535.79248	19.02579	41.81936	1286.36938	173.92548	613.13422	1298.48157	143.82005	490.07431	1317.13623	331.24716	325.01190	1370.38184	480.83188	223.31517	1418.82068	517.43274	241.95654	1368.98242	436.16229	73.22192	1465.22473	261.16406	1693.52686									 
71	0.700	1518.88745	142.76608	1656.25293	1387.72485	151.69286	1641.80798	1528.74280	277.57727	1606.27307	1399.82605	285.35764	1597.46362	1471.10315	285.06009	1444.03870	1454.25342	317.37411	1113.33533	1466.75610	174.84268	1367.15784	1468.57214	132.81668	1192.96106	1386.73511	357.81409	1273.88489	1630.63367	226.49460	1395.64600	1703.20361	260.66681	1197.39465	1713.08630	293.22900	1089.13953	1734.01843	308.63220	940.28595	1680.67896	301.64352	812.92114	1736.10278	343.89496	827.27350	1724.95996	341.30865	735.88940	1306.99231	223.50737	1401.45203	1210.45813	269.36679	1211.02771	1191.88989	258.24933	1090.42615	1178.93201	210.06209	981.40387	1221.94275	109.84200	875.61230	1179.41296	158.37280	854.90668	1180.42505	95.32024	801.38580	1559.40808	129.37993	964.99304	1339.88721	141.85770	958.10260	1539.43884	290.86008	982.98169	1372.30396	291.86221	974.33362	1621.62231	140.46930	652.96667	1590.97900	101.29834	495.77921	1588.46423	141.65503	240.32193	1545.96252	160.94502	70.71204	1503.44360	205.34709	57.21012	1535.60657	18.92751	41.76305	1287.03064	152.48613	617.64630	1299.61243	118.67736	495.65765	1317.49451	301.08160	324.14536	1370.82410	448.08621	217.82443	1419.35962	486.22021	233.87115	1367.42896	393.76617	71.89635	1464.93115	245.56212	1696.13049									 
